<svg xmlns="http://www.w3.org/2000/svg" xmlns:xlink="http://www.w3.org/1999/xlink" version="1.1" x="0px" y="0px" viewBox="0 0 512 640" style="enable-background:new 0 0 512 512;" xml:space="preserve"><path d="M225.4,254.3l9.4,5.9c13,8,29.4,8,42.4,0l9.4-5.9c25.8-16,41.5-44.3,41.4-74.6v-12.2c-0.1-36.6-22.8-69.4-57.1-82.4  l-12.1-4.5c-1.8-0.7-3.8-0.7-5.6,0L241.1,85c-34.3,13-57,45.8-57.1,82.4v12.2C183.9,210,199.6,238.3,225.4,254.3z M246.7,100  l9.3-3.5l9.3,3.5c26.2,9.9,44.3,34.1,46.5,62l-47.2,18.1c-5.5,2.1-11.7,2.1-17.2,0L200.2,162C202.4,134.1,220.5,109.9,246.7,100z"/><rect x="228" y="129.6" transform="matrix(0.5547 -0.8321 0.8321 0.5547 -14.7245 260.487)" width="16" height="28.8"/><rect x="261.6" y="136" transform="matrix(0.8321 -0.5547 0.5547 0.8321 -33.5227 177.282)" width="28.8" height="16"/><path d="M446.3,315.9l0.2-0.1c-7.8-12.6-19.3-22.6-32.9-28.4l-78.2-33.5c13-17.7,20.8-38.5,22.7-60.4l3.4-39.5  c4.2-47.7-20.5-93.4-62.7-116.1L259.8,17c-2.4-1.3-5.2-1.3-7.6,0L213.1,38c-42.2,22.7-66.8,68.3-62.7,116.1l3.4,39.5  c1.9,21.8,9.8,42.7,22.7,60.4l-78.2,33.5c-15.6,6.7-28.4,18.8-36,34l-30.4,60.8c-10.6,21.3-10.1,46.4,1.5,67.2l5.3,9.6  c12.7,22.9,36.8,37,62.9,37H400c53,0,96-43,96-96C496,365,477,332.8,446.3,315.9z M407.3,302.1c1.9,0.8,3.7,1.7,5.5,2.7  c-4.3-0.6-8.5-0.9-12.8-0.9h-32c-13.8,0-27.5,3-40,8.7v-44.6L407.3,302.1z M169.8,192.2l-3.4-39.5c-3.6-41.4,17.7-80.9,54.3-100.6  l35.3-19l35.3,19c36.6,19.7,57.9,59.2,54.3,100.6l-3.4,39.5c-3.6,40.3-30.1,74.8-68.1,88.7l-18.1,6.6l-18.1-6.6  C199.9,267,173.4,232.4,169.8,192.2L169.8,192.2z M200,312v-34c9.8,7.6,20.7,13.7,32.4,17.9l15.6,5.7V312H200z M264,312v-10.4  l15.6-5.7c11.7-4.2,22.6-10.3,32.4-17.9v34H264z M256,424c-8.8,0-16-7.2-16-16s7.2-16,16-16c8.8,0,16,7.2,16,16  C272,416.8,264.8,424,256,424z M104,336v56H88v16h16v72h-2.3c-20.3,0-39.1-11-49-28.8l-5.3-9.6c-9-16.2-9.4-35.7-1.1-52.2l30.4-60.8  c5.9-11.8,15.9-21.2,28-26.4l79.3-34V312h-56C114.8,312,104,322.8,104,336z M360,424c0-4.4,3.6-8,8-8s8,3.6,8,8s-3.6,8-8,8  C363.6,432,360,428.4,360,424z M416,464v-20.6l13.7-13.7c1.5-1.5,2.3-3.5,2.3-5.7v-24h-16v20.7l-13.7,13.7c-1.5,1.5-2.3,3.5-2.3,5.7  v33.3c-10.1,4.4-21,6.7-32,6.7c-1.5,0-3-0.1-4.5-0.1l10.2-10.2c1.5-1.5,2.3-3.5,2.3-5.7v-17.4c12.5-4.4,19-18.1,14.6-30.6  c-4.4-12.5-18.1-19-30.6-14.6c-12.5,4.4-19,18.1-14.6,30.6c2.4,6.8,7.8,12.2,14.6,14.6v14.1l-15.7,15.7  c-42.2-13.1-65.8-57.9-52.7-100.1c0.7-2.3,1.6-4.7,2.5-6.9l9.9,9.9V416c0,2.1,0.8,4.2,2.3,5.7l16,16l11.3-11.3L320,412.7V376  c0-2.1-0.8-4.2-2.3-5.7l-15.6-15.6c4.5-6.5,9.9-12.3,16.1-17.3l17.8,17.8V384h16v-32c0-2.1-0.8-4.2-2.3-5.7l-17.7-17.7  c24.1-12.2,52.7-11.4,76.1,2.1v9.9l-5.7,5.7c-12-5.7-26.3-0.7-32,11.3s-0.7,26.3,11.3,32s26.3,0.7,32-11.3c3.1-6.5,3.1-14.2,0-20.7  l8-8c1.5-1.5,2.3-3.5,2.3-5.7v-1.1c31.5,30.9,32.1,81.4,1.2,113C422.3,458.8,419.3,461.5,416,464z M400,368c0,4.4-3.6,8-8,8  s-8-3.6-8-8s3.6-8,8-8C396.4,360,400,363.6,400,368z M427.9,475c14-11.2,24.6-26.1,30.6-43h14.8C464.6,451.9,448.2,467.4,427.9,475z   M480,400c0,5.4-0.5,10.7-1.6,16h-15.7c1.8-10.6,1.8-21.4,0-32h15.7C479.5,389.3,480,394.6,480,400z M458.5,368  c-6-16.9-16.6-31.8-30.6-43c20.3,7.6,36.7,23.1,45.4,43H458.5z"/><path d="M115.5,216l21.7,36.1l13.7-8.2l-24-40c-1.4-2.4-4-3.9-6.9-3.9H40c-4.4,0-8-3.6-8-8V80c0-4.4,3.6-8,8-8h112V56H40  c-13.2,0-24,10.8-24,24v112c0,13.2,10.8,24,24,24H115.5z"/><path d="M112,136c13.3,0,24-10.7,24-24c0-13.3-10.7-24-24-24s-24,10.7-24,24c0,3.6,0.8,7.1,2.3,10.4l-48,48l11.3,11.3L64,171.3  l10.3,10.3l11.3-11.3L75.3,160l8.7-8.7l10.3,10.3l11.3-11.3L95.3,140l6.3-6.3C104.9,135.2,108.4,136,112,136z M112,104  c4.4,0,8,3.6,8,8s-3.6,8-8,8s-8-3.6-8-8C104,107.6,107.6,104,112,104z"/><path d="M472,56H360v16h112c4.4,0,8,3.6,8,8v112c0,4.4-3.6,8-8,8h-80c-2.8,0-5.4,1.5-6.9,3.9l-24,40l13.7,8.2l21.7-36.1H472  c13.2,0,24-10.8,24-24V80C496,66.8,485.2,56,472,56z"/><rect x="376" y="96" width="88" height="16"/><rect x="376" y="128" width="88" height="16"/><rect x="376" y="160" width="64" height="16"/><text x="0" y="527" fill="#000000" font-size="5px" font-weight="bold" font-family="'Helvetica Neue', Helvetica, Arial-Unicode, Arial, Sans-serif">Created by WiStudio</text><text x="0" y="532" fill="#000000" font-size="5px" font-weight="bold" font-family="'Helvetica Neue', Helvetica, Arial-Unicode, Arial, Sans-serif">from the Noun Project</text></svg>