<svg xmlns="http://www.w3.org/2000/svg" data-name="Layer 1" viewBox="0 0 32 32" id="mask"><path fill="#469ed6" d="M31.27 17.19c-.81 4.79-4.2 11.36-8.38 11.3S15.5 21.77 14.82 17a17 17 0 0 1 1.3-9.12 12.08 12.08 0 0 0 7 2.38 12 12 0 0 0 7.08-2.18 17 17 0 0 1 1.07 9.11Z"></path><path fill="#1db3ca" d="M22.14 10.23h.74a12.12 12.12 0 0 1-6.76-2.37c-.07.16-.14.35-.22.54a12.14 12.14 0 0 0 6.24 1.83Z"></path><path fill="#227fc0" d="M30.22 8.05c-.27.19-.54.34-.81.5a16.8 16.8 0 0 1 .86 8.64c-.77 4.57-3.89 10.74-7.81 11.25a3 3 0 0 0 .43 0c4.18.06 7.57-6.51 8.38-11.3a17 17 0 0 0-1.05-9.09Z"></path><path fill="#fff" d="m20.574 14.755-4-.054a2 2 0 0 1 2.028-1.973 2 2 0 0 1 1.972 2.027Z"></path><path fill="#e1e1e3" d="M19.58 14.75h1a2 2 0 0 0-2-2 2.18 2.18 0 0 0-.52.07 2 2 0 0 1 1.52 1.93Z"></path><path fill="#fff" d="M23 18.78a3.5 3.5 0 0 1 3.45 3.54v.5a6.47 6.47 0 0 0-7-.1v-.5A3.48 3.48 0 0 1 23 18.78Z"></path><path fill="#e1e1e3" d="M23 18.78a3.43 3.43 0 0 0-.56 0 3.47 3.47 0 0 1 3 3.46 6.92 6.92 0 0 1 1 .53v-.5A3.5 3.5 0 0 0 23 18.78Z"></path><path fill="#fff" d="m29.546 14.883-4-.054a2 2 0 0 1 2.028-1.973 2 2 0 0 1 1.972 2.027Z"></path><path fill="#e1e1e3" d="M28.55 14.87h1a2 2 0 0 0-2-2 2.25 2.25 0 0 0-.52.07 2 2 0 0 1 1.52 1.93Z"></path><path fill="#f9b15e" d="M18 11.71c.91 4.77 0 12.11-3.92 13.52s-9.26-3.73-11.58-8a17.18 17.18 0 0 1-2-9A12 12 0 0 0 7.93 8a12.06 12.06 0 0 0 5.88-4.51A17 17 0 0 1 18 11.71Z"></path><path fill="#f9a242" d="M18 11.71a17 17 0 0 0-4.17-8.2c-.15.22-.31.41-.47.61A16.93 16.93 0 0 1 17 11.71c.91 4.77 0 12.11-3.92 13.52a3.93 3.93 0 0 1-.89.19 4.29 4.29 0 0 0 1.89-.19C18 23.82 18.89 16.48 18 11.71zm-14.59-3a11.87 11.87 0 0 1-2.89-.47v.24a12.33 12.33 0 0 0 2.89.23z"></path><path fill="#fff" d="M12.13 19.84a3.49 3.49 0 0 0 2.12-4.46l-.17-.47a6.47 6.47 0 0 1-6.57 2.34l.17.47a3.48 3.48 0 0 0 4.45 2.12Z"></path><path fill="#e1e1e3" d="m14.25 15.38-.17-.47a6.71 6.71 0 0 1-.75.8 3.48 3.48 0 0 1-2.2 4.13 3.6 3.6 0 0 1-.63.15 3.38 3.38 0 0 0 1.63-.15 3.49 3.49 0 0 0 2.12-4.46Z"></path><path fill="#fff" d="M11.141 9.602 14.91 8.26a2 2 0 0 1-1.213 2.555 2 2 0 0 1-2.555-1.213Z"></path><path fill="#e1e1e3" d="M14.89 8.27 14 8.6a2 2 0 0 1-1.29 2.22h-.18a1.91 1.91 0 0 0 1.18 0 2 2 0 0 0 1.18-2.55Z"></path><path fill="#fff" d="m2.682 12.617 3.768-1.342a2 2 0 0 1-1.212 2.555 2 2 0 0 1-2.556-1.213Z"></path><path fill="#e1e1e3" d="m6.44 11.28-.92.33a2 2 0 0 1-1.29 2.22l-.23.05a2 2 0 0 0 1.19-.05 2 2 0 0 0 1.25-2.55Z"></path><path d="M6.91 11.11a.51.51 0 0 0-.26-.28.5.5 0 0 0-.38 0l-3.76 1.32a.51.51 0 0 0-.28.26.5.5 0 0 0 0 .38 2.44 2.44 0 0 0 1.26 1.41 2.37 2.37 0 0 0 1.07.25 2.48 2.48 0 0 0 .84-.15A2.44 2.44 0 0 0 6.81 13a2.48 2.48 0 0 0 .1-1.89Zm-1 1.48a1.5 1.5 0 0 1-.85.77 1.49 1.49 0 0 1-1.66-.47L6.06 12a1.43 1.43 0 0 1-.15.59Zm8.64 2.15a.5.5 0 0 0-.38-.32.48.48 0 0 0-.48.18 6.14 6.14 0 0 1-3.16 2.1 5.88 5.88 0 0 1-2.91.06.5.5 0 0 0-.58.66l.16.47a4 4 0 0 0 3.8 2.65 4.15 4.15 0 0 0 1.34-.23 4 4 0 0 0 2.42-5.1Zm-.89 3.09A3 3 0 0 1 12 19.37a3 3 0 0 1-2.29-.12 2.93 2.93 0 0 1-1.39-1.37 7 7 0 0 0 5.59-2 2.92 2.92 0 0 1-.25 1.95Zm17-10-.24-.59-.51.37a11.57 11.57 0 0 1-6.79 2.09 11.59 11.59 0 0 1-5.78-1.64 18.12 18.12 0 0 0-3.19-4.92l-.42-.47-.36.53a11.61 11.61 0 0 1-5.6 4.35 11.49 11.49 0 0 1-7.1.21l-.61-.18v.64a17.67 17.67 0 0 0 2 9.26C4.15 21.37 8.73 26 12.68 26a4.55 4.55 0 0 0 1.55-.26 5.17 5.17 0 0 0 2.36-1.85C17.74 26 19.87 29 22.88 29h.06c4.46 0 8-6.78 8.83-11.71a17.58 17.58 0 0 0-1.08-9.43ZM13.9 24.75C10.25 26.06 5.09 21 2.92 17A16.58 16.58 0 0 1 1 8.89a12.61 12.61 0 0 0 7.1-.39 12.66 12.66 0 0 0 5.75-4.19 16.43 16.43 0 0 1 3.64 7.5c.85 4.46.06 11.65-3.59 12.94Zm16.88-7.64c-.76 4.48-4 11-7.88 10.88-2 0-4.09-1.89-5.69-5.12a16.68 16.68 0 0 0 1.59-7.64h1.77a.51.51 0 0 0 .5-.49 2.49 2.49 0 0 0-2.46-2.53c0-.21-.07-.42-.1-.62a17.11 17.11 0 0 0-.56-2.1 12.66 12.66 0 0 0 5.21 1.21A12.72 12.72 0 0 0 30 8.81a16.49 16.49 0 0 1 .78 8.3ZM18.7 13.25a1.48 1.48 0 0 1 .95.44 1.43 1.43 0 0 1 .35.56h-1.23c-.02-.35-.04-.68-.07-1Zm-4-5.45L11 9.14a.48.48 0 0 0-.29.25.52.52 0 0 0 0 .39A2.48 2.48 0 0 0 13 11.43a2.41 2.41 0 0 0 .83-.14 2.48 2.48 0 0 0 1.53-3.19.49.49 0 0 0-.63-.3Zm-.37 1.78a1.51 1.51 0 0 1-.84.77 1.5 1.5 0 0 1-1.66-.47l2.65-.94a1.43 1.43 0 0 1-.12.64Zm13.23 2.78a2.52 2.52 0 0 0-2.53 2.46.54.54 0 0 0 .14.36.53.53 0 0 0 .36.15l4 .05a.5.5 0 0 0 .5-.49 2.43 2.43 0 0 0-.71-1.77 2.45 2.45 0 0 0-1.73-.76Zm-1.43 2a1.55 1.55 0 0 1 1.42-1 1.53 1.53 0 0 1 1.05.45 1.48 1.48 0 0 1 .34.56ZM23 18.28a4 4 0 0 0-4 3.94v.49a.53.53 0 0 0 .25.45.52.52 0 0 0 .51 0 6.07 6.07 0 0 1 2.78-.89 6.14 6.14 0 0 1 3.67 1 .5.5 0 0 0 .51 0 .51.51 0 0 0 .26-.44v-.5A4 4 0 0 0 23 18.28Zm-.15 3h-.43a7 7 0 0 0-2.44.61 3 3 0 0 1 3-2.6 2.94 2.94 0 0 1 2.1.91 2.9 2.9 0 0 1 .86 1.8 7.09 7.09 0 0 0-3.07-.75Z"></path></svg>